# xmcd
#
# Track frame offsets: 
#        150
#        13670
#        26464
#        38105
#        51936
#        63641
#        77993
#        92436
#        106084
#        119035
#        132998
#        151984
#        164523
#        176984
#
# Disc length: 2501 seconds
#
# Revision: 0
# Processed by: cddbd v1.5.2PL0 Copyright (c) Steve Scherf et al.
# Submitted via: ExactAudioCopy v1.0b4
#
DISCID=bb09c30e
DTITLE=Willie Dixon - I  Got 29 Ways - Bloos Roots  Vol 12 (LP)
DYEAR=1900
DGENRE=Blues
TTITLE0=Walking The Blues
TTITLE1=Home In Indiana
TTITLE2=Wrinkles
TTITLE3=Black Angel Blues
TTITLE4=My Babe
TTITLE5=Alone
TTITLE6=29 Ways
TTITLE7=Wang Dang Doodle
TTITLE8=40 Days And 40 Nights
TTITLE9=Gonna Bring It On Home
TTITLE10=Good Moanin' Blues
TTITLE11=Firey Love
TTITLE12=The Hunt
TTITLE13=The Red Rooster
EXTD=
EXTT0=
EXTT1=
EXTT2=
EXTT3=
EXTT4=
EXTT5=
EXTT6=
EXTT7=
EXTT8=
EXTT9=
EXTT10=
EXTT11=
EXTT12=
EXTT13=
PLAYORDER=
